<svg width="88" height="100" viewBox="0 0 88 100" fill="none" xmlns="http://www.w3.org/2000/svg">
<path d="M69.0391 36.582V51.4063C69.0391 62.3438 63.1211 72.4219 53.5703 77.7539C48.7852 80.4297 43.6289 83.9453 39.2344 88.4375C34.8398 83.9648 29.6836 80.4297 24.8984 77.7539C15.3477 72.4219 9.42969 62.3438 9.42969 51.4063V22.0312L39.2344 11.4648L63.9805 20.2344" fill="#DBDBDB"/>
<path d="M39.2539 88.418C34.8594 83.9453 29.7031 80.4102 24.918 77.7344C15.3672 72.4023 9.44922 62.3242 9.44922 51.3867V22.0312L39.2539 11.4648V88.418Z" fill="#EAEAEA"/>
<path d="M87.8672 1.42573V22.7734C87.8672 22.7734 80.1914 25.7812 69.0391 36.582C61.7148 43.6914 52.8672 54.1796 43.7266 69.4335L15.3086 38.3203C15.3086 38.3203 20.4648 33.8671 25.8555 28.4765C33.1797 35.8007 43.8242 46.1328 43.8242 46.1328C43.8242 46.1328 49.7812 34.1992 63.9805 20.2343C70.2695 14.082 78.1602 7.51948 87.8672 1.42573ZM1.65625 20.4296C0.816406 20.4296 0.132812 21.1132 0.132812 21.9531C0.132812 22.7929 0.816406 23.4765 1.65625 23.4765C2.49609 23.4765 3.17969 22.7929 3.17969 21.9531C3.17969 21.1132 2.51563 20.4296 1.65625 20.4296ZM1.65625 43.8085C0.816406 43.8085 0.132812 44.4921 0.132812 45.332C0.132812 46.1718 0.816406 46.8554 1.65625 46.8554C2.49609 46.8554 3.17969 46.1718 3.17969 45.332C3.19922 44.4921 2.51563 43.8085 1.65625 43.8085ZM16.8906 10.8789C17.0664 10.8789 17.2422 10.8593 17.3984 10.7812C18.1992 10.4882 18.6094 9.62885 18.3359 8.82807C18.0625 8.02729 17.1836 7.61713 16.3828 7.89057C15.582 8.16401 15.1719 9.04291 15.4453 9.8437C15.6797 10.4882 16.2656 10.8789 16.8906 10.8789ZM60.4453 10.5664C60.6211 10.6249 60.7773 10.664 60.9531 10.664C61.5781 10.664 62.1641 10.2734 62.3984 9.64838C62.6914 8.8476 62.2617 7.9687 61.4609 7.69526C60.6602 7.40229 59.7812 7.83198 59.5078 8.63276C59.2344 9.41401 59.6445 10.2734 60.4453 10.5664ZM38.9219 3.06635C39.0977 3.06635 39.2734 3.04682 39.4297 2.9687C40.2305 2.69526 40.6406 1.81635 40.3672 1.01557C40.0938 0.214789 39.2148 -0.195367 38.4141 0.0780703C37.6133 0.371039 37.2031 1.23041 37.4766 2.0312C37.7109 2.67573 38.2969 3.06635 38.9219 3.06635ZM21.832 83.6132C21.0898 83.2031 20.1523 83.457 19.7422 84.1992C19.332 84.9414 19.5859 85.8788 20.3281 86.289C20.5625 86.4257 20.8164 86.4843 21.0703 86.4843C21.5977 86.4843 22.125 86.2109 22.3984 85.7031C22.8477 84.9609 22.5742 84.0429 21.832 83.6132ZM76.832 43.1445C75.9922 43.1445 75.3086 43.8281 75.3086 44.6679C75.3086 45.5078 75.9922 46.1914 76.832 46.1914C77.6719 46.1914 78.3555 45.5078 78.3555 44.6679C78.3555 43.8281 77.6719 43.1445 76.832 43.1445ZM74.0391 66.1523C73.2773 65.8007 72.3594 66.1328 72.0078 66.914C71.6562 67.6757 71.9883 68.5937 72.7695 68.9453C72.9844 69.0429 73.1992 69.082 73.3945 69.082C73.9805 69.082 74.5273 68.7499 74.7812 68.1835C75.1523 67.4218 74.8008 66.5039 74.0391 66.1523ZM4.70312 66.7773C3.94141 67.1484 3.60937 68.0468 3.98047 68.8281C4.23438 69.3749 4.80078 69.707 5.36719 69.707C5.58203 69.707 5.81641 69.6679 6.03125 69.5507C6.79297 69.1796 7.125 68.2812 6.75391 67.5195C6.38281 66.7382 5.46484 66.4062 4.70312 66.7773ZM38.1602 97.4023C37.5742 98.0078 37.5742 98.9843 38.1797 99.5703C38.4727 99.8632 38.8633 99.9999 39.2539 99.9999C39.6445 99.9999 40.0547 99.8437 40.3477 99.5312C40.9336 98.9257 40.9336 97.9492 40.3281 97.3632C39.7031 96.7773 38.7461 96.7968 38.1602 97.4023ZM57.2031 83.3007C56.4805 83.7304 56.2266 84.6679 56.6562 85.3906C56.9492 85.8789 57.457 86.1523 57.9844 86.1523C58.2383 86.1523 58.5117 86.0937 58.7656 85.9374C59.4883 85.5078 59.7422 84.5703 59.3125 83.8476C58.8828 83.1249 57.9453 82.871 57.2031 83.3007Z" fill="#47B574"/>
</svg>
